<svg width="41" height="40" viewBox="0 0 41 40" fill="none" xmlns="http://www.w3.org/2000/svg">
<path d="M35.5011 10.8333V23.3333H32.1677V12.5L23.8344 6.66667L15.5011 12.5V15H12.1677V10.8333L23.8344 2.5L35.5011 10.8333ZM26.3344 11.6667H24.6677V13.3333H26.3344V11.6667ZM23.0011 11.6667H21.3344V13.3333H23.0011V11.6667ZM26.3344 15H24.6677V16.6667H26.3344V15ZM23.0011 15H21.3344V16.6667H23.0011V15ZM32.1677 26.6667H28.8344C28.8344 24.6667 27.5844 22.8667 25.7177 22.1667L15.4511 18.3333H2.16772V36.6667H12.1677V34.2667L23.8344 37.5L37.1677 33.3333V31.6667C37.1677 28.9 34.9344 26.6667 32.1677 26.6667ZM5.50106 33.3333V21.6667H8.83439V33.3333H5.50106ZM23.7844 34.0167L12.1677 30.8V21.6667H14.8511L24.5511 25.2833C25.1177 25.5 25.5011 26.05 25.5011 26.6667C25.5011 26.6667 22.1844 26.5833 21.6677 26.4167L17.7011 25.1L16.6511 28.2667L20.6177 29.5833C21.4677 29.8667 22.3511 30.0167 23.2511 30.0167H32.1677C32.8177 30.0167 33.4011 30.4 33.6677 30.95L23.7844 34.0167Z" fill="#44555E"/>
</svg>
