<svg width="30" height="30" viewBox="0 0 30 30" fill="none" xmlns="http://www.w3.org/2000/svg">
<path d="M26.25 8.125V17.5H23.75V9.375L17.5 5L11.25 9.375V11.25H8.75V8.125L17.5 1.875L26.25 8.125ZM19.375 8.75H18.125V10H19.375V8.75ZM16.875 8.75H15.625V10H16.875V8.75ZM19.375 11.25H18.125V12.5H19.375V11.25ZM16.875 11.25H15.625V12.5H16.875V11.25ZM23.75 20H21.25C21.25 18.5 20.3125 17.15 18.9125 16.625L11.2125 13.75H1.25V27.5H8.75V25.7L17.5 28.125L27.5 25V23.75C27.5 21.675 25.825 20 23.75 20ZM3.75 25V16.25H6.25V25H3.75ZM17.4625 25.5125L8.75 23.1V16.25H10.7625L18.0375 18.9625C18.4625 19.125 18.75 19.5375 18.75 20C18.75 20 16.2625 19.9375 15.875 19.8125L12.9 18.825L12.1125 21.2L15.0875 22.1875C15.725 22.4 16.3875 22.5125 17.0625 22.5125H23.75C24.2375 22.5125 24.675 22.8 24.875 23.2125L17.4625 25.5125Z" fill="#44555E"/>
</svg>
