<svg width="237" height="47" viewBox="0 0 237 47" fill="none" xmlns="http://www.w3.org/2000/svg">
<path d="M19.9951 4.57L27.6314 9.08L31.5033 6.8L19.9951 0L0.772461 11.36L4.62481 13.64L19.9951 4.57Z" fill="#44555E"/>
<path d="M35.3557 9.08002L19.9952 18.15L12.359 13.64L8.49683 15.92L19.9952 22.71L39.2276 11.36L35.3557 9.08002Z" fill="#44555E"/>
<path d="M3.86213 24.3401L0 22.0601V35.6401L19.2226 47.0001V42.4401L3.86213 33.3601V24.3401Z" fill="#44555E"/>
<path d="M0 17.4999L15.3605 26.5699V35.5899L19.2226 37.8799V24.2899L0 12.9399V17.4999Z" fill="#44555E"/>
<path d="M32.2757 22.06V17.5L20.7676 24.29V47L24.6297 44.72V26.57L32.2757 22.06Z" fill="#44555E"/>
<path d="M36.1282 15.2199V33.3599L28.4919 37.8799V42.4399L40.0001 35.6399V12.9399L36.1282 15.2199Z" fill="#44555E"/>
<path d="M70.8281 35H59.4688C58.2292 35 57.1042 34.7708 56.0938 34.3125C55.0833 33.8542 54.2188 33.2292 53.5 32.4375C52.7812 31.6354 52.224 30.6979 51.8281 29.625C51.4427 28.5417 51.25 27.3802 51.25 26.1406C51.25 24.9115 51.4427 23.7656 51.8281 22.7031C52.224 21.6302 52.7812 20.6979 53.5 19.9062C54.2188 19.1146 55.0833 18.4896 56.0938 18.0312C57.1042 17.5729 58.2292 17.3438 59.4688 17.3438H70.8281V20.5625H59.4688C58.6979 20.5625 58 20.7083 57.375 21C56.7604 21.2917 56.2396 21.6875 55.8125 22.1875C55.3854 22.6875 55.0573 23.276 54.8281 23.9531C54.599 24.6302 54.4844 25.3594 54.4844 26.1406C54.4844 26.9323 54.599 27.6719 54.8281 28.3594C55.0573 29.0365 55.3854 29.6302 55.8125 30.1406C56.2396 30.6406 56.7604 31.0365 57.375 31.3281C58 31.6198 58.6979 31.7656 59.4688 31.7656H67.5938V27.7031H58.4219V24.4688H70.8281V35ZM93.2656 35H74.8906V17.3438H93.2656V20.5625H78.125V31.7656H93.2656V35ZM91.2188 27.7031H79.6406V24.4688H91.2188V27.7031ZM117.422 26.1719C117.422 27.3906 117.229 28.5365 116.844 29.6094C116.458 30.6719 115.906 31.6042 115.188 32.4062C114.479 33.2083 113.625 33.8438 112.625 34.3125C111.635 34.7708 110.531 35 109.312 35H103.75C102.531 35 101.422 34.7708 100.422 34.3125C99.4219 33.8438 98.5625 33.2083 97.8438 32.4062C97.1354 31.6042 96.5885 30.6719 96.2031 29.6094C95.8177 28.5365 95.625 27.3906 95.625 26.1719C95.625 24.9635 95.8177 23.8281 96.2031 22.7656C96.5885 21.7031 97.1354 20.776 97.8438 19.9844C98.5625 19.1823 99.4219 18.5521 100.422 18.0938C101.422 17.6354 102.531 17.4062 103.75 17.4062H109.312C110.531 17.4062 111.635 17.6354 112.625 18.0938C113.625 18.5521 114.479 19.1823 115.188 19.9844C115.906 20.776 116.458 21.7031 116.844 22.7656C117.229 23.8281 117.422 24.9635 117.422 26.1719ZM114.219 26.1719C114.219 25.401 114.104 24.6771 113.875 24C113.656 23.3125 113.333 22.7188 112.906 22.2188C112.49 21.7083 111.979 21.3073 111.375 21.0156C110.771 20.7135 110.083 20.5625 109.312 20.5625H103.75C102.979 20.5625 102.286 20.7135 101.672 21.0156C101.068 21.3073 100.552 21.7083 100.125 22.2188C99.7083 22.7188 99.3854 23.3125 99.1562 24C98.9375 24.6771 98.8281 25.401 98.8281 26.1719C98.8281 26.9427 98.9375 27.6719 99.1562 28.3594C99.3854 29.0365 99.7083 29.6302 100.125 30.1406C100.552 30.651 101.068 31.0573 101.672 31.3594C102.286 31.651 102.979 31.7969 103.75 31.7969H109.312C110.083 31.7969 110.771 31.651 111.375 31.3594C111.979 31.0573 112.49 30.651 112.906 30.1406C113.333 29.6302 113.656 29.0365 113.875 28.3594C114.104 27.6719 114.219 26.9427 114.219 26.1719ZM133.859 35H130.656V26.1406C130.656 25.3698 130.51 24.6458 130.219 23.9688C129.927 23.2917 129.526 22.7031 129.016 22.2031C128.516 21.6927 127.922 21.2917 127.234 21C126.557 20.7083 125.833 20.5625 125.062 20.5625H124.156V35H120.953V17.4062H125.062C125.812 17.4062 126.536 17.5 127.234 17.6875C127.932 17.8646 128.589 18.1198 129.203 18.4531C129.828 18.776 130.401 19.1719 130.922 19.6406C131.453 20.1094 131.917 20.6302 132.312 21.2031C132.719 20.6302 133.177 20.1094 133.688 19.6406C134.208 19.1719 134.771 18.776 135.375 18.4531C135.979 18.1198 136.62 17.8646 137.297 17.6875C137.974 17.5 138.682 17.4062 139.422 17.4062H143.516V35H140.312V20.5625H139.422C138.651 20.5625 137.927 20.7188 137.25 21.0312C136.583 21.3438 135.995 21.7708 135.484 22.3125C134.984 22.8542 134.589 23.4896 134.297 24.2188C134.005 24.9479 133.859 25.724 133.859 26.5469V35ZM166.516 35H148.141V17.3438H166.516V20.5625H151.375V31.7656H166.516V35ZM164.469 27.7031H152.891V24.4688H164.469V27.7031ZM179.812 35H176.609V20.5625H168.141V17.4062H188.266V20.5625H179.812V35ZM211.641 35H207.281L202.281 30.2344H195.797V27.0625H204.656C205.104 27.0625 205.526 26.974 205.922 26.7969C206.318 26.6198 206.661 26.3854 206.953 26.0938C207.245 25.7917 207.474 25.4427 207.641 25.0469C207.807 24.651 207.891 24.2344 207.891 23.7969C207.891 23.349 207.807 22.9323 207.641 22.5469C207.474 22.151 207.245 21.8073 206.953 21.5156C206.661 21.224 206.318 20.9948 205.922 20.8281C205.526 20.651 205.104 20.5625 204.656 20.5625H194.125V35H190.922V17.4062H204.656C205.542 17.4062 206.375 17.5781 207.156 17.9219C207.938 18.2552 208.615 18.7135 209.188 19.2969C209.771 19.8698 210.229 20.5469 210.562 21.3281C210.896 22.099 211.062 22.9219 211.062 23.7969C211.062 24.5156 210.948 25.2083 210.719 25.875C210.49 26.5312 210.167 27.1354 209.75 27.6875C209.344 28.2292 208.859 28.6979 208.297 29.0938C207.734 29.4896 207.12 29.7812 206.453 29.9688L211.641 35ZM234.391 29.8125C234.391 30.5312 234.219 31.2083 233.875 31.8438C233.542 32.4688 233.083 33.0156 232.5 33.4844C231.927 33.9531 231.25 34.3229 230.469 34.5938C229.688 34.8646 228.859 35 227.984 35H214.219V31.7969H227.984C228.422 31.7969 228.833 31.75 229.219 31.6562C229.615 31.5521 229.958 31.4115 230.25 31.2344C230.542 31.0469 230.771 30.8333 230.938 30.5938C231.104 30.3542 231.188 30.0938 231.188 29.8125V29.0156H220.594C219.719 29.0156 218.891 28.849 218.109 28.5156C217.339 28.1719 216.661 27.7135 216.078 27.1406C215.505 26.5573 215.052 25.8802 214.719 25.1094C214.385 24.3281 214.219 23.4948 214.219 22.6094V17.4062H217.391V22.6094C217.391 23.0573 217.474 23.4792 217.641 23.875C217.807 24.2604 218.036 24.599 218.328 24.8906C218.62 25.1719 218.958 25.3958 219.344 25.5625C219.74 25.7292 220.156 25.8125 220.594 25.8125H231.188V17.4062H234.391V29.8125Z" fill="#44555E"/>
</svg>
