<svg width="170" height="30" viewBox="0 0 170 30" fill="none" xmlns="http://www.w3.org/2000/svg">
<g clip-path="url(#clip0_43_91)">
<path d="M14.3426 2.91702L19.8201 5.79575L22.5975 4.34043L14.3426 0L0.554199 7.25107L3.31749 8.70639L14.3426 2.91702Z" fill="#44555E"/>
<path d="M25.3606 5.79575L14.3425 11.5851L8.86506 8.70637L6.09473 10.1617L14.3425 14.4957L28.1379 7.25105L25.3606 5.79575Z" fill="#44555E"/>
<path d="M2.7703 15.5362L0 14.0809V22.749L13.7884 30.0001V27.0894L2.7703 21.2937V15.5362Z" fill="#44555E"/>
<path d="M0 11.1702L11.0181 16.9595V22.717L13.7884 24.1787V15.5042L0 8.25952V11.1702Z" fill="#44555E"/>
<path d="M23.1512 14.0809V11.1702L14.8965 15.5043V30L17.6668 28.5447V16.9596L23.1512 14.0809Z" fill="#44555E"/>
<path d="M25.915 9.71484V21.2936L20.4375 24.1787V27.0893L28.6923 22.7489V8.25952L25.915 9.71484Z" fill="#44555E"/>
<path d="M50.8051 22.3404H42.657C41.7679 22.3404 40.9609 22.1941 40.2362 21.9016C39.5113 21.6091 38.8912 21.2101 38.3756 20.7048C37.86 20.1928 37.4604 19.5944 37.1764 18.9096C36.8999 18.2181 36.7617 17.4767 36.7617 16.6855C36.7617 15.901 36.8999 15.1695 37.1764 14.4914C37.4604 13.8065 37.86 13.2114 38.3756 12.7061C38.8912 12.2008 39.5113 11.8019 40.2362 11.5093C40.9609 11.2168 41.7679 11.0705 42.657 11.0705H50.8051V13.125H42.657C42.1041 13.125 41.6035 13.2181 41.1552 13.4043C40.7143 13.5905 40.3407 13.8431 40.0344 14.1623C39.728 14.4814 39.4927 14.857 39.3283 15.2892C39.1639 15.7214 39.0817 16.1869 39.0817 16.6855C39.0817 17.1908 39.1639 17.6629 39.3283 18.1018C39.4927 18.534 39.728 18.9129 40.0344 19.2387C40.3407 19.5578 40.7143 19.8105 41.1552 19.9967C41.6035 20.1829 42.1041 20.2759 42.657 20.2759H48.4851V17.6828H41.9061V15.6184H50.8051V22.3404ZM66.8994 22.3404H53.7191V11.0705H66.8994V13.125H56.0391V20.2759H66.8994V22.3404ZM65.4313 17.6828H57.1262V15.6184H65.4313V17.6828ZM84.2268 16.7055C84.2268 17.4834 84.0883 18.2148 83.8122 18.8996C83.5353 19.5778 83.1393 20.1729 82.6243 20.6848C82.1158 21.1968 81.5032 21.6024 80.7859 21.9016C80.0758 22.1941 79.2839 22.3404 78.4095 22.3404H74.4199C73.5455 22.3404 72.75 22.1941 72.0327 21.9016C71.3153 21.6024 70.6989 21.1968 70.1834 20.6848C69.6752 20.1729 69.2829 19.5778 69.0065 18.8996C68.73 18.2148 68.5918 17.4834 68.5918 16.7055C68.5918 15.9342 68.73 15.2094 69.0065 14.5313C69.2829 13.8531 69.6752 13.2613 70.1834 12.756C70.6989 12.244 71.3153 11.8418 72.0327 11.5492C72.75 11.2567 73.5455 11.1104 74.4199 11.1104H78.4095C79.2839 11.1104 80.0758 11.2567 80.7859 11.5492C81.5032 11.8418 82.1158 12.244 82.6243 12.756C83.1393 13.2613 83.5353 13.8531 83.8122 14.5313C84.0883 15.2094 84.2268 15.9342 84.2268 16.7055ZM81.9293 16.7055C81.9293 16.2134 81.8468 15.7514 81.6825 15.3192C81.5254 14.8803 81.2937 14.5014 80.9874 14.1822C80.6891 13.8564 80.3225 13.6004 79.8893 13.4142C79.456 13.2214 78.9625 13.125 78.4095 13.125H74.4199C73.8668 13.125 73.3697 13.2214 72.9293 13.4142C72.4961 13.6004 72.1259 13.8564 71.8197 14.1822C71.5208 14.5014 71.2891 14.8803 71.1247 15.3192C70.9679 15.7514 70.8894 16.2134 70.8894 16.7055C70.8894 17.1975 70.9679 17.6629 71.1247 18.1018C71.2891 18.534 71.5208 18.9129 71.8197 19.2387C72.1259 19.5645 72.4961 19.8238 72.9293 20.0167C73.3697 20.2028 73.8668 20.2959 74.4199 20.2959H78.4095C78.9625 20.2959 79.456 20.2028 79.8893 20.0167C80.3225 19.8238 80.6891 19.5645 80.9874 19.2387C81.2937 18.9129 81.5254 18.534 81.6825 18.1018C81.8468 17.6629 81.9293 17.1975 81.9293 16.7055ZM96.017 22.3404H93.7195V16.6855C93.7195 16.1935 93.6148 15.7314 93.406 15.2993C93.1966 14.8671 92.9089 14.4914 92.5431 14.1722C92.1845 13.8464 91.7584 13.5905 91.2649 13.4043C90.7793 13.2181 90.26 13.125 89.7069 13.125H89.0571V22.3404H86.7595V11.1104H89.7069C90.2449 11.1104 90.7642 11.1702 91.2649 11.2899C91.7656 11.403 92.2368 11.5658 92.6773 11.7786C93.1256 11.9847 93.5366 12.2374 93.9103 12.5366C94.2912 12.8358 94.624 13.1682 94.9073 13.5339C95.1993 13.1682 95.5278 12.8358 95.8943 12.5366C96.2673 12.2374 96.6712 11.9847 97.1044 11.7786C97.5377 11.5658 97.9975 11.403 98.4831 11.2899C98.9687 11.1702 99.4765 11.1104 100.007 11.1104H102.944V22.3404H100.646V13.125H100.007C99.4543 13.125 98.935 13.2248 98.4494 13.4242C97.9709 13.6237 97.5491 13.8963 97.1826 14.242C96.824 14.5878 96.5406 14.9934 96.3312 15.4588C96.1217 15.9242 96.017 16.4196 96.017 16.9448V22.3404ZM119.442 22.3404H106.261V11.0705H119.442V13.125H108.581V20.2759H119.442V22.3404ZM117.973 17.6828H109.669V15.6184H117.973V17.6828ZM128.979 22.3404H126.681V13.125H120.607V11.1104H135.043V13.125H128.979V22.3404ZM151.81 22.3404H148.682L145.096 19.2986H140.445V17.274H146.8C147.121 17.274 147.424 17.2175 147.708 17.1044C147.992 16.9914 148.238 16.8418 148.447 16.6556C148.657 16.4628 148.821 16.24 148.941 15.9874C149.06 15.7347 149.12 15.4688 149.12 15.1895C149.12 14.9036 149.06 14.6377 148.941 14.3917C148.821 14.139 148.657 13.9196 148.447 13.7334C148.238 13.5473 147.992 13.401 147.708 13.2945C147.424 13.1815 147.121 13.125 146.8 13.125H139.246V22.3404H136.948V11.1104H146.8C147.435 11.1104 148.033 11.2201 148.593 11.4395C149.154 11.6523 149.639 11.9448 150.05 12.3172C150.469 12.6829 150.797 13.1151 151.036 13.6137C151.275 14.1058 151.395 14.631 151.395 15.1895C151.395 15.6483 151.313 16.0904 151.149 16.516C150.984 16.9348 150.753 17.3205 150.453 17.6729C150.162 18.0187 149.814 18.3178 149.411 18.5705C149.007 18.8232 148.567 19.0093 148.089 19.129L151.81 22.3404ZM168.128 19.0293C168.128 19.488 168.005 19.9202 167.758 20.3258C167.519 20.7248 167.19 21.0738 166.772 21.373C166.361 21.6722 165.875 21.9083 165.315 22.0812C164.755 22.254 164.16 22.3404 163.533 22.3404H153.659V20.2959H163.533C163.847 20.2959 164.142 20.266 164.419 20.2061C164.703 20.1397 164.949 20.0499 165.158 19.9369C165.368 19.8172 165.532 19.6808 165.652 19.528C165.771 19.375 165.831 19.2088 165.831 19.0293V18.5206H158.232C157.604 18.5206 157.01 18.4143 156.449 18.2015C155.897 17.9821 155.411 17.6895 154.993 17.3238C154.582 16.9515 154.257 16.5193 154.018 16.0273C153.778 15.5286 153.659 14.9967 153.659 14.4315V11.1104H155.934V14.4315C155.934 14.7174 155.994 14.9867 156.114 15.2394C156.233 15.4854 156.397 15.7015 156.606 15.8876C156.816 16.0672 157.058 16.2101 157.335 16.3165C157.619 16.4229 157.918 16.4761 158.232 16.4761H165.831V11.1104H168.128V19.0293Z" fill="#44555E"/>
</g>
<defs>
<clipPath id="clip0_43_91">
<rect width="170" height="30" fill="white"/>
</clipPath>
</defs>
</svg>
