<svg width="30" height="30" viewBox="0 0 30 30" fill="none" xmlns="http://www.w3.org/2000/svg">
<path d="M3 5.25C2.99921 4.71864 3.1865 4.20415 3.52869 3.79765C3.87089 3.39114 4.34591 3.11886 4.86962 3.02903C5.39333 2.9392 5.93193 3.03762 6.39004 3.30685C6.84814 3.57608 7.19617 3.99875 7.3725 4.5H24.75C25.2817 4.49926 25.7965 4.68686 26.2031 5.02953C26.6097 5.3722 26.8818 5.84779 26.9711 6.37196C27.0605 6.89613 26.9613 7.435 26.6912 7.89301C26.4211 8.35102 25.9975 8.69856 25.4955 8.874L25.5 9V19.5C25.5 20.6935 25.0259 21.8381 24.182 22.682C23.3381 23.5259 22.1935 24 21 24H10.5C9.39283 24.0014 8.32427 23.5932 7.5 22.854V25.875C7.5 26.1734 7.38148 26.4595 7.1705 26.6705C6.95952 26.8815 6.67337 27 6.375 27H4.125C3.82663 27 3.54049 26.8815 3.32951 26.6705C3.11853 26.4595 3 26.1734 3 25.875V5.25ZM24 19.5V9H7.5V19.5C7.5 20.2956 7.81607 21.0587 8.37868 21.6213C8.94129 22.1839 9.70435 22.5 10.5 22.5H21C21.7957 22.5 22.5587 22.1839 23.1213 21.6213C23.6839 21.0587 24 20.2956 24 19.5ZM6 7.5H24.75C24.9489 7.5 25.1397 7.42098 25.2803 7.28033C25.421 7.13968 25.5 6.94891 25.5 6.75C25.5 6.55109 25.421 6.36032 25.2803 6.21967C25.1397 6.07902 24.9489 6 24.75 6H6V5.25C6 5.05109 5.92098 4.86032 5.78033 4.71967C5.63968 4.57902 5.44891 4.5 5.25 4.5C5.05109 4.5 4.86032 4.57902 4.71967 4.71967C4.57902 4.86032 4.5 5.05109 4.5 5.25V25.5H6V7.5ZM11.25 14.9325V18.7575C11.25 18.9564 11.329 19.1472 11.4697 19.2878C11.6103 19.4285 11.8011 19.5075 12 19.5075H13.5C13.6989 19.5075 13.8897 19.4285 14.0303 19.2878C14.171 19.1472 14.25 18.9564 14.25 18.7575V17.2575C14.25 17.0586 14.329 16.8678 14.4697 16.7272C14.6103 16.5865 14.8011 16.5075 15 16.5075H16.5C16.6989 16.5075 16.8897 16.5865 17.0303 16.7272C17.171 16.8678 17.25 17.0586 17.25 17.2575V18.7575C17.25 18.9564 17.329 19.1472 17.4697 19.2878C17.6103 19.4285 17.8011 19.5075 18 19.5075H19.5C19.6989 19.5075 19.8897 19.4285 20.0303 19.2878C20.171 19.1472 20.25 18.9564 20.25 18.7575V14.9325C20.2501 14.7205 20.2052 14.5109 20.1183 14.3175C20.0314 14.1241 19.9045 13.9513 19.746 13.8105L16.248 10.7055C16.1107 10.5836 15.9336 10.5163 15.75 10.5163C15.5664 10.5163 15.3893 10.5836 15.252 10.7055L11.754 13.8105C11.5955 13.9513 11.4686 14.1241 11.3817 14.3175C11.2948 14.5109 11.2499 14.7205 11.25 14.9325Z" fill="#44555E"/>
</svg>
