<svg width="41" height="40" viewBox="0 0 41 40" fill="none" xmlns="http://www.w3.org/2000/svg">
<path d="M4.50074 6.99999C4.49968 6.29151 4.7494 5.60552 5.20566 5.06352C5.66192 4.52151 6.29528 4.15848 6.99356 4.0387C7.69184 3.91893 8.40998 4.05015 9.02078 4.40912C9.63158 4.7681 10.0956 5.33166 10.3307 5.99999H33.5007C34.2097 5.999 34.8961 6.24914 35.4382 6.70603C35.9804 7.16292 36.3431 7.79704 36.4623 8.49594C36.5814 9.19483 36.4491 9.91333 36.089 10.524C35.7288 11.1347 35.164 11.5981 34.4947 11.832L34.5007 12V26C34.5007 27.5913 33.8686 29.1174 32.7434 30.2426C31.6182 31.3679 30.092 32 28.5007 32H14.5007C13.0245 32.0018 11.5998 31.4576 10.5007 30.472V34.5C10.5007 34.8978 10.3427 35.2793 10.0614 35.5607C9.78009 35.842 9.39856 36 9.00074 36H6.00074C5.60291 36 5.22138 35.842 4.94008 35.5607C4.65877 35.2793 4.50074 34.8978 4.50074 34.5V6.99999ZM32.5007 26V12H10.5007V26C10.5007 27.0609 10.9222 28.0783 11.6723 28.8284C12.4225 29.5786 13.4399 30 14.5007 30H28.5007C29.5616 30 30.579 29.5786 31.3292 28.8284C32.0793 28.0783 32.5007 27.0609 32.5007 26ZM8.50074 9.99999H33.5007C33.766 9.99999 34.0203 9.89463 34.2078 9.7071C34.3954 9.51956 34.5007 9.26521 34.5007 8.99999C34.5007 8.73477 34.3954 8.48042 34.2078 8.29288C34.0203 8.10535 33.766 7.99999 33.5007 7.99999H8.50074V6.99999C8.50074 6.73477 8.39538 6.48042 8.20784 6.29288C8.02031 6.10535 7.76595 5.99999 7.50074 5.99999C7.23552 5.99999 6.98117 6.10535 6.79363 6.29288C6.60609 6.48042 6.50074 6.73477 6.50074 6.99999V34H8.50074V9.99999ZM15.5007 19.91V25.01C15.5007 25.2752 15.6061 25.5296 15.7936 25.7171C15.9812 25.9046 16.2355 26.01 16.5007 26.01H18.5007C18.766 26.01 19.0203 25.9046 19.2078 25.7171C19.3954 25.5296 19.5007 25.2752 19.5007 25.01V23.01C19.5007 22.7448 19.6061 22.4904 19.7936 22.3029C19.9812 22.1153 20.2355 22.01 20.5007 22.01H22.5007C22.766 22.01 23.0203 22.1153 23.2078 22.3029C23.3954 22.4904 23.5007 22.7448 23.5007 23.01V25.01C23.5007 25.2752 23.6061 25.5296 23.7936 25.7171C23.9812 25.9046 24.2355 26.01 24.5007 26.01H26.5007C26.766 26.01 27.0203 25.9046 27.2078 25.7171C27.3954 25.5296 27.5007 25.2752 27.5007 25.01V19.91C27.5008 19.6273 27.441 19.3478 27.3251 19.0899C27.2093 18.8321 27.0401 18.6017 26.8287 18.414L22.1647 14.274C21.9817 14.1115 21.7455 14.0217 21.5007 14.0217C21.256 14.0217 21.0197 14.1115 20.8367 14.274L16.1727 18.414C15.9614 18.6017 15.7922 18.8321 15.6763 19.0899C15.5605 19.3478 15.5007 19.6273 15.5007 19.91Z" fill="#44555E"/>
</svg>
